<svg class="jsx-2287835375" width="40" height="40" viewBox="0 0 48 48" fill="#fe2c55" xmlns="http://www.w3.org/2000/svg"><path fill-rule="evenodd" clip-rule="evenodd" d="M17.29 15L17.9176 8.8977C17.9701 8.38771 18.3997 8 18.9124 8H20.8882C21.4787 8 21.9406 8.50897 21.8835 9.0967L21.31 15H28.29L28.9176 8.8977C28.9701 8.38771 29.3997 8 29.9124 8H31.8882C32.4787 8 32.9406 8.50897 32.8835 9.0967L32.31 15H37C37.5523 15 38 15.4477 38 16V18C38 18.5523 37.5523 19 37 19H31.91L31.21 26H36C36.5523 26 37 26.4477 37 27V29C37 29.5523 36.5523 30 36 30H30.81L30.0821 37.102C30.0298 37.6121 29.6001 38 29.0873 38H27.1122C26.5215 38 26.0596 37.4908 26.1169 36.9029L26.79 30H19.81L19.0821 37.102C19.0298 37.6121 18.6001 38 18.0873 38H16.1122C15.5215 38 15.0596 37.4908 15.1169 36.9029L15.79 30H11C10.4477 30 10 29.5523 10 29V27C10 26.4477 10.4477 26 11 26H16.19L16.89 19H12C11.4477 19 11 18.5523 11 18V16C11 15.4477 11.4477 15 12 15H17.29ZM20.91 19L20.21 26H27.19L27.89 19H20.91Z"></path></svg>